:SAMPLES-PER-SECOND 30
:FULLY-SPECIFIED
:DEGREES
479
root  58.8654 33.4837 2.45644 -12.1838 82.8306 -5.98334
RightUpLeg  12.0054 -0.205791 -8.78405
RightLeg  59.5824 4.88612 8.44514
RightFoot  -5.88383 -0.677466 16.7536
RightToes  2.91037e-010 0 -3.6325e-017
Spine  20.5508 2.74587 0.783597
Spine1  -6.1012 2.42221 -1.79694
HEad  -27.9337 14.0618 5.89456
LeftShoulder1  0.0177837 3.45537 -31.6914
LeftArm  -9.91229 38.8157 -37.1994
LeftForeArm  81.6467 -79.8663 -73.9141
LeftHand  -0.455651 -3.19924 6.40208
RightShoulder  -0.922946 -6.15786 28.2065
RightArm  5.29751 -36.3054 37.1821
RightForeArm  116.534 74.8004 134.746
RightHand  -0.824459 4.32991 -10.1037
LeftUpLeg  -38.6284 9.14299 2.41985
LeftLeg  31.6701 -1.34495 -0.502313
LeftFoot  9.48601 0.615573 -3.68318
LeftToes  -7.53974e-010 3.3384e-011 -1.25048e-011
480
root  60.0793 33.1263 2.31375 -0.85408 84.1091 5.82471
RightUpLeg  4.23629 0.297932 -9.96684
RightLeg  72.1142 2.80086 8.92522
RightFoot  4.07864 -1.36974 9.75262
RightToes  2.91037e-010 0 -3.6325e-017
Spine  24.9708 2.65751 -1.30413
Spine1  -8.68756 1.9577 -2.83275
HEad  -29.023 13.5857 6.17517
LeftShoulder1  0.27957 2.76224 -31.4181
LeftArm  -10.3552 33.8332 -37.4662
LeftForeArm  86.2326 -80.0799 -78.2168
LeftHand  -0.432999 -2.91364 6.28555
RightShoulder  -0.868436 -5.93619 29.0089
RightArm  2.15736 -33.7045 39.8066
RightForeArm  113.09 75.6742 131.003
RightHand  -0.952262 4.72913 -11.152
LeftUpLeg  -39.9136 8.87963 -0.140208
LeftLeg  37.3375 -0.652197 -0.184376
LeftFoot  9.09785 -0.213812 0.919226
LeftToes  -7.53974e-010 3.3384e-011 -1.25048e-011
481
root  61.2981 32.9866 2.12919 -1.3654 85.6035 6.08813
RightUpLeg  -2.15526 -0.156111 -9.51138
RightLeg  81.0178 1.51255 9.94309
RightFoot  -1.91045 -0.792448 9.52999
RightToes  2.91037e-010 0 -3.6325e-017
Spine  30.0364 2.24271 -0.947635
Spine1  -13.7603 1.49525 -2.25937
HEad  -27.625 12.8104 4.92142
LeftShoulder1  0.735444 1.5903 -32.4501
LeftArm  -10.5448 25.6064 -37.0081
LeftForeArm  72.1922 -79.1423 -63.9468
LeftHand  -0.474014 -2.94456 6.83462
RightShoulder  -0.378186 -4.61111 27.1958
RightArm  -1.56583 -29.7306 44.1614
RightForeArm  103.019 77.2038 121.611
RightHand  -1.17742 5.78362 -12.5077
LeftUpLeg  -39.8171 8.05004 -0.707378
LeftLeg  41.8189 -1.45777 -0.982924
LeftFoot  6.54181 -0.643195 3.80237
LeftToes  -7.53974e-010 3.3384e-011 -1.25048e-011
482
root  62.3607 33.0668 2.01857 7.58759 86.2177 15.5176
RightUpLeg  -9.63671 -0.338565 -9.60444
RightLeg  86.3447 0.592563 10.1247
RightFoot  -4.85707 -0.577592 9.40121
RightToes  2.91037e-010 0 -3.6325e-017
Spine  32.4411 2.80106 -2.70984
Spine1  -14.2712 1.58038 0.382429
HEad  -28.746 11.7755 2.98254
LeftShoulder1  0.619739 1.97285 -34.3545
LeftArm  -10.6655 11.759 -36.66
LeftForeArm  51.6307 -76.21 -44.4635
LeftHand  -0.514586 -2.64576 7.65445
RightShoulder  -0.0411604 -3.6103 25.2768
RightArm  -3.57082 -19.6594 45.7917
RightForeArm  83.7779 78.6823 103.691
RightHand  -1.23723 5.42223 -13.5476
LeftUpLeg  -38.748 7.83355 -1.61082
LeftLeg  44.4646 -1.36724 -1.01568
LeftFoot  3.13575 -0.529245 4.01035
LeftToes  -7.53974e-010 3.3384e-011 -1.25048e-011
483
root  63.2639 33.1603 1.90535 10.4493 86.4392 18.1154
RightUpLeg  -18.0413 -0.389021 -8.9226
RightLeg  88.1757 0.264354 9.00721
RightFoot  -7.91803 -0.259453 7.12932
RightToes  2.91037e-010 0 -3.6325e-017
Spine  32.6694 3.25828 -3.2035
Spine1  -12.3615 1.97 2.05398
HEad  -31.4064 13.6128 0.584351
LeftShoulder1  0.59848 2.05528 -35.1846
LeftArm  -12.7831 -2.35054 -37.6851
LeftForeArm  43.1141 -73.7964 -36.4747
LeftHand  -0.475568 -2.29734 7.39794
RightShoulder  0.331612 -2.27105 21.8749
RightArm  -6.56011 -7.93597 47.9815
RightForeArm  59.5681 78.7922 83.1376
RightHand  -1.36516 4.73872 -15.8355
LeftUpLeg  -38.3716 7.94951 -2.02248
LeftLeg  46.3188 -1.27412 -0.990491
LeftFoot  0.670989 -0.464034 4.37431
LeftToes  -7.53974e-010 3.3384e-011 -1.25048e-011
484
root  64.0993 33.413 1.77381 10.1963 86.9499 17.3365
RightUpLeg  -25.1819 -0.549829 -8.25661
RightLeg  85.2449 0.553272 6.12921
RightFoot  -10.2159 -0.138785 6.80757
RightToes  2.91037e-010 0 -3.6325e-017
Spine  33.0802 3.02488 -2.34279
Spine1  -11.6355 2.11221 2.50494
HEad  -31.3678 22.0339 -4.01126
LeftShoulder1  0.61398 2.02302 -35.3364
LeftArm  -15.1553 -16.511 -36.9823
LeftForeArm  38.4808 -71.634 -31.2909
LeftHand  -0.489053 -2.83487 7.13121
RightShoulder  0.614566 -0.903039 16.8118
RightArm  -11.2434 2.15512 50.76
RightForeArm  48.3322 78.2837 71.3118
RightHand  -1.48906 5.30363 -13.9946
LeftUpLeg  -37.6338 7.68439 -2.23586
LeftLeg  46.8416 -1.05136 -0.762483
LeftFoot  -1.08373 -0.429908 4.8505
LeftToes  -7.53974e-010 3.3384e-011 -1.25048e-011
485
root  64.8692 33.8169 1.70251 7.04245 86.6371 13.7634
RightUpLeg  -30.3933 0.460589 -7.80009
RightLeg  78.0623 0.707404 2.70895
RightFoot  -10.7865 -0.0948979 4.74852
RightToes  2.91037e-010 0 -3.6325e-017
Spine  33.3985 3.20315 -1.56263
Spine1  -11.0705 2.64498 2.45283
HEad  -32.8954 23.9638 -8.28632
LeftShoulder1  0.626871 1.97318 -34.8442
LeftArm  -19.2569 -29.9121 -35.6884
LeftForeArm  35.9708 -69.4268 -27.0951
LeftHand  -0.556683 -2.83999 8.08191
RightShoulder  0.516982 -0.961209 13.5911
RightArm  -15.806 14.8685 49.5065
RightForeArm  37.7454 77.3742 59.6662
RightHand  1.57176 12.2538 -4.79331
LeftUpLeg  -36.0697 8.55589 -2.18459
LeftLeg  46.1578 -1.46654 -1.19868
LeftFoot  -2.35297 -0.391394 5.16356
LeftToes  -7.53974e-010 3.3384e-011 -1.25048e-011
486
root  65.631 34.281 1.61787 2.9111 86.801 8.63379
RightUpLeg  -33.4376 1.9592 -7.79999
RightLeg  67.1295 1.28685 2.35361
RightFoot  -10.6779 -0.101351 5.04695
RightToes  2.91037e-010 0 -3.6325e-017
Spine  32.243 3.20299 -1.14446
Spine1  -9.66356 2.68017 3.96191
HEad  -36.0256 20.2898 -11.8514
LeftShoulder1  0.646654 1.90789 -34.3971
LeftArm  -25.4848 -42.0111 -32.0239
LeftForeArm  30.8318 -66.2279 -23.0772
LeftHand  -0.542382 -2.83338 7.93786
RightShoulder  0.488155 -0.309172 7.81266
RightArm  -20.3808 22.5403 48.92
RightForeArm  71.4913 78.001 69.5461
RightHand  -7.15283 58.1665 4.27129
LeftUpLeg  -34.9038 8.76446 -2.08777
LeftLeg  44.9005 -2.06217 -1.78208
LeftFoot  -2.9537 -0.419326 5.94836
LeftToes  -7.53974e-010 3.3384e-011 -1.25048e-011
487
root  66.3371 34.742 1.59463 3.13217 87.5222 8.35394
RightUpLeg  -33.6714 4.23265 -8.54809
RightLeg  54.6261 4.74009 6.66914
RightFoot  -11.0098 -0.0897215 5.79433
RightToes  2.91037e-010 0 -3.6325e-017
Spine  31.3235 3.06089 -0.811799
Spine1  -8.20804 2.49172 5.2386
HEad  -39.0946 22.8837 -16.6635
LeftShoulder1  0.662999 1.84048 -33.8178
LeftArm  -33.7913 -52.8184 -25.7357
LeftForeArm  23.1634 -60.7897 -18.2384
LeftHand  -0.355746 0.397535 8.25769
RightShoulder  0.396479 0.67636 1.31491
RightArm  -23.4736 14.1859 52.0688
RightForeArm  -162.253 72.5082 155.142
RightHand  165.921 50.5067 168.497
LeftUpLeg  -33.1756 8.36305 -2.04098
LeftLeg  43.2166 -2.14992 -1.74828
LeftFoot  -3.52516 -0.379553 5.86662
LeftToes  -7.53974e-010 3.3384e-011 -1.25048e-011
488
root  67.1207 35.0727 1.64765 -6.84856 88.7493 -2.59882
RightUpLeg  -32.8996 6.47138 -9.75353
RightLeg  42.6986 9.58413 9.12985
RightFoot  -10.5655 -0.134233 7.43524
RightToes  2.91037e-010 0 -3.6325e-017
Spine  30.3981 2.92549 -1.02836
Spine1  -8.52468 2.34784 6.30153
HEad  -41.6773 25.6807 -21.9917
LeftShoulder1  0.838322 1.31433 -32.2169
LeftArm  -44.8754 -60.02 -15.8381
LeftForeArm  18.7804 -54.3554 -14.2422
LeftHand  -0.247801 1.9489 8.2699
RightShoulder  0.218699 1.95443 -5.28146
RightArm  -33.2666 11.89 56.6421
RightForeArm  -176.71 58.5234 164.074
RightHand  173.944 60.7152 175.804
LeftUpLeg  -32.3351 7.73036 -2.04836
LeftLeg  42.3656 -2.7916 -2.31767
LeftFoot  -4.33743 -0.345866 6.07113
LeftToes  -7.53974e-010 3.3384e-011 -1.25048e-011
